SplineFontDB: 3.0
FontName: Jones-it-BookItalic
FullName: Jones* Book Italic
FamilyName: Jones*
Weight: Book
Copyright: 
UComments: "2016-1-29: Created with FontForge (http://fontforge.org)"
Version: 002.000
ItalicAngle: -10
UnderlinePosition: -150
UnderlineWidth: 50
Ascent: 784
Descent: 216
InvalidEm: 0
LayerCount: 2
Layer: 0 0 "Back" 1
Layer: 1 0 "Fore" 0
XUID: [1021 31 -699969567 4970488]
FSType: 0
OS2Version: 2
OS2_WeightWidthSlopeOnly: 0
OS2_UseTypoMetrics: 0
CreationTime: 1454127431
ModificationTime: 1454887995
PfmFamily: 17
TTFWeight: 400
TTFWidth: 5
LineGap: 0
VLineGap: 0
OS2TypoAscent: 784
OS2TypoAOffset: 0
OS2TypoDescent: -216
OS2TypoDOffset: 0
OS2TypoLinegap: 200
OS2WinAscent: 850
OS2WinAOffset: 0
OS2WinDescent: 300
OS2WinDOffset: 0
HheadAscent: 850
HheadAOffset: 0
HheadDescent: -300
HheadDOffset: 0
OS2SubXSize: 650
OS2SubYSize: 600
OS2SubXOff: 0
OS2SubYOff: 75
OS2SupXSize: 650
OS2SupYSize: 600
OS2SupXOff: 0
OS2SupYOff: 350
OS2StrikeYSize: 50
OS2StrikeYPos: 314
OS2CapHeight: 700
OS2XHeight: 520
OS2Vendor: 'PfEd'
Lookup: 5 0 0 "lig" { "lig-1"  } ['calt' ('DFLT' <'dflt' > 'grek' <'dflt' > 'latn' <'dflt' > ) ]
Lookup: 1 0 0 "fi" { "fi-1"  } ['ss01' ('DFLT' <'dflt' > 'grek' <'dflt' > 'latn' <'dflt' > ) ]
Lookup: 258 0 0 "kern" { "kerning" [150,0,2] } ['kern' ('DFLT' <'dflt' > 'grek' <'dflt' > 'latn' <'dflt' > ) ]
MarkAttachClasses: 1
DEI: 91125
KernClass2: 13 10 "kerning"
 3 A L
 5 D O Q
 3 F P
 3 K X
 3 V W
 13 b e h m n o p
 15 a c g q r s u z
 14 d f i j l t fi
 3 k x
 3 v w
 3 R B
 3 T Y
 1 A
 7 C G O Q
 3 T Y
 3 V W
 15 a m n p r s u z
 11 c d e g o q
 18 b f h i j k l t fi
 5 v w y
 1 x

StartChar: E
Encoding: 69 69 0
Width: 670
VWidth: 0
Flags: HMW
AnchorPoint: "ced" 495 0 basechar 0
AnchorPoint: "dot" 499.009 760 basechar 0
LayerCount: 2
Fore
SplineSet
170.177734375 398 m 1
 630.177734375 398 l 1
 616.072265625 318 l 1
 156.072265625 318 l 1
 170.177734375 398 l 1
223.428710938 700 m 1
 733.428710938 700 l 1
 719.322265625 620 l 1
 209.322265625 620 l 1
 223.428710938 700 l 1
114.106445312 80 m 1
 624.106445312 80 l 1
 610 0 l 1
 100 0 l 1
 114.106445312 80 l 1
223.428710938 700 m 1
 313.428710938 700 l 5
 190 0 l 5
 100 0 l 1
 223.428710938 700 l 1
EndSplineSet
EndChar

StartChar: I
Encoding: 73 73 1
Width: 300
VWidth: 0
Flags: HMW
AnchorPoint: "ced" 155 0 basechar 0
AnchorPoint: "dot" 284.009 760 basechar 0
LayerCount: 2
Fore
SplineSet
228.428710938 700 m 1
 318.428710938 700 l 1
 195 0 l 1
 105 0 l 1
 228.428710938 700 l 1
EndSplineSet
EndChar

StartChar: F
Encoding: 70 70 2
Width: 665
VWidth: 0
Flags: HMW
AnchorPoint: "ced" 145 0 basechar 0
AnchorPoint: "dot" 499.009 760 basechar 0
LayerCount: 2
Fore
SplineSet
166.651367188 378 m 1
 626.651367188 378 l 1
 612.545898438 298 l 1
 152.545898438 298 l 1
 166.651367188 378 l 1
223.428710938 700 m 1
 733.428710938 700 l 1
 719.322265625 620 l 1
 209.322265625 620 l 1
 223.428710938 700 l 1
223.428710938 700 m 1
 313.428710938 700 l 5
 190 0 l 5
 100 0 l 1
 223.428710938 700 l 1
EndSplineSet
EndChar

StartChar: H
Encoding: 72 72 3
Width: 765
VWidth: 0
Flags: HMW
AnchorPoint: "ced" 625 0 basechar 0
AnchorPoint: "dot" 514.009 760 basechar 0
LayerCount: 2
Fore
SplineSet
698.428710938 700 m 1
 788.428710938 700 l 1
 665 0 l 1
 575 0 l 1
 698.428710938 700 l 1
170.177734375 398 m 1
 680.177734375 398 l 1
 666.072265625 318 l 1
 156.072265625 318 l 1
 170.177734375 398 l 1
223.428710938 700 m 1
 313.428710938 700 l 1
 190 0 l 1
 100 0 l 1
 223.428710938 700 l 1
EndSplineSet
EndChar

StartChar: L
Encoding: 76 76 4
Width: 655
VWidth: 0
Flags: HMW
AnchorPoint: "ced" 365 0 basechar 0
AnchorPoint: "dot" 519.009 760 basechar 0
LayerCount: 2
Fore
SplineSet
114.106445312 80 m 1
 624.106445312 80 l 1
 610 0 l 1
 100 0 l 1
 114.106445312 80 l 1
223.428710938 700 m 1
 313.428710938 700 l 5
 190 0 l 5
 100 0 l 1
 223.428710938 700 l 1
EndSplineSet
EndChar

StartChar: T
Encoding: 84 84 5
Width: 690
VWidth: 0
Flags: HMW
AnchorPoint: "ced" 347 0 basechar 0
AnchorPoint: "dot" 479.009 760 basechar 0
LayerCount: 2
Fore
SplineSet
173.428710938 700 m 1
 763.428710938 700 l 1
 749.322265625 620 l 1
 159.322265625 620 l 1
 173.428710938 700 l 1
423.428710938 700 m 1
 513.428710938 700 l 1
 390 0 l 1
 300 0 l 1
 423.428710938 700 l 1
EndSplineSet
EndChar

StartChar: O
Encoding: 79 79 7
Width: 850
VWidth: 0
Flags: HMW
AnchorPoint: "ced" 425 0 basechar 0
AnchorPoint: "dot" 559.009 760 basechar 0
LayerCount: 2
Fore
SplineSet
221.71484375 350 m 0
 194.20703125 194 286.342773438 70 437.342773438 70 c 0
 588.342773438 70 724.20703125 194 751.71484375 350 c 4
 779.221679688 506 687.0859375 630 536.0859375 630 c 0
 385.0859375 630 249.221679688 506 221.71484375 350 c 0
131.71484375 350 m 0
 166.803710938 549 355.192382812 710 550.192382812 710 c 0
 745.192382812 710 876.803710938 549 841.71484375 350 c 4
 806.625 151 618.236328125 -10 423.236328125 -10 c 0
 228.236328125 -10 96.625 151 131.71484375 350 c 0
EndSplineSet
EndChar

StartChar: C
Encoding: 67 67 8
Width: 732
VWidth: 0
Flags: HMW
AnchorPoint: "ced" 425 0 basechar 0
AnchorPoint: "dot" 559.009 760 basechar 0
LayerCount: 2
Fore
SplineSet
221.71484375 350 m 0
 194.20703125 194 286.342773438 70 437.342773438 70 c 0
 520.342773438 70 600.395507812 110 664.15234375 171 c 5
 711.924804688 113 l 1
 633.700195312 38 529.236328125 -10 423.236328125 -10 c 0
 228.236328125 -10 96.625 151 131.71484375 350 c 0
 166.803710938 549 355.192382812 710 550.192382812 710 c 0
 656.192382812 710 743.728515625 662 795.50390625 587 c 1
 727.27734375 529 l 1
 685.033203125 590 619.0859375 630 536.0859375 630 c 0
 385.0859375 630 249.221679688 506 221.71484375 350 c 0
EndSplineSet
EndChar

StartChar: A
Encoding: 65 65 9
Width: 800
VWidth: 0
Flags: HMW
AnchorPoint: "ced" 707 0 basechar 0
AnchorPoint: "ring" 523.429 700 basechar 0
AnchorPoint: "dot" 534.009 760 basechar 0
LayerCount: 2
Fore
SplineSet
483.428710938 700 m 1
 563.428710938 700 l 1
 551.666015625 690 l 1
 481.666015625 690 l 1
 483.428710938 700 l 1
249.844726562 260 m 1
 641.844726562 260 l 1
 628.620117188 185 l 1
 236.620117188 185 l 1
 249.844726562 260 l 1
670 0 m 1
 481.666015625 690 l 1
 563.428710938 700 l 1
 760 0 l 1
 670 0 l 1
483.428710938 700 m 1
 561.666015625 690 l 1
 130 0 l 1
 40 0 l 1
 483.428710938 700 l 1
EndSplineSet
EndChar

StartChar: V
Encoding: 86 86 10
Width: 780
VWidth: 0
Flags: HMW
AnchorPoint: "ced" 390 0 basechar 0
AnchorPoint: "dot" 523.009 760 basechar 0
LayerCount: 2
Fore
SplineSet
430 0 m 1
 350 0 l 1
 355.290039062 30 l 1
 435.290039062 30 l 1
 430 0 l 1
258.428710938 700 m 1
 435.290039062 30 l 1
 350 0 l 1
 163.428710938 700 l 1
 258.428710938 700 l 1
430 0 m 1
 355.290039062 30 l 1
 768.428710938 700 l 1
 863.428710938 700 l 1
 430 0 l 1
EndSplineSet
EndChar

StartChar: G
Encoding: 71 71 11
Width: 782
VWidth: 0
Flags: HMW
AnchorPoint: "ced" 425 0 basechar 0
AnchorPoint: "dot" 559.009 760 basechar 0
LayerCount: 2
Fore
SplineSet
767.241210938 370 m 1
 753.134765625 290 l 1
 476.134765625 290 l 1
 490.241210938 370 l 1
 767.241210938 370 l 1
721.924804688 113 m 1
 631.924804688 113 l 1
 677.241210938 370 l 1
 767.241210938 370 l 1
 721.924804688 113 l 1
221.71484375 350 m 0
 194.20703125 194 286.342773438 70 437.342773438 70 c 0
 520.342773438 70 610.395507812 110 674.15234375 171 c 1
 721.924804688 113 l 1
 643.700195312 38 529.236328125 -10 423.236328125 -10 c 0
 228.236328125 -10 96.625 151 131.71484375 350 c 0
 166.803710938 549 355.192382812 710 550.192382812 710 c 0
 656.192382812 710 743.728515625 662 795.50390625 587 c 1
 727.27734375 529 l 1
 685.033203125 590 619.0859375 630 536.0859375 630 c 0
 385.0859375 630 249.221679688 506 221.71484375 350 c 0
EndSplineSet
EndChar

StartChar: D
Encoding: 68 68 12
Width: 810
VWidth: 0
Flags: HMW
AnchorPoint: "ced" 325 0 basechar 0
AnchorPoint: "dot" 479.009 760 basechar 0
LayerCount: 2
Fore
SplineSet
223.428710938 700 m 1
 503.428710938 700 l 1
 489.322265625 620 l 1
 209.322265625 620 l 1
 223.428710938 700 l 1
114.106445312 80 m 1
 394.106445312 80 l 1
 380 0 l 1
 100 0 l 1
 114.106445312 80 l 1
223.428710938 700 m 1
 313.428710938 700 l 1
 190 0 l 1
 100 0 l 1
 223.428710938 700 l 1
394.106445312 80 m 1
 545.106445312 80 684.20703125 194 711.71484375 350 c 0
 739.221679688 506 640.322265625 620 489.322265625 620 c 1
 503.428710938 700 l 1
 698.428710938 700 836.803710938 549 801.71484375 350 c 0
 766.625 151 575 0 380 0 c 1
 394.106445312 80 l 1
EndSplineSet
EndChar

StartChar: U
Encoding: 85 85 13
Width: 760
VWidth: 0
Flags: HMW
AnchorPoint: "ced" 380 0 basechar 0
AnchorPoint: "dot" 514.009 760 basechar 0
LayerCount: 2
Fore
SplineSet
634.37109375 280 m 5
 708.428710938 700 l 5
 793.428710938 700 l 1
 719.37109375 280 l 1
 634.37109375 280 l 5
139.37109375 280 m 1
 213.428710938 700 l 1
 298.428710938 700 l 1
 224.37109375 280 l 1
 139.37109375 280 l 1
634.37109375 280 m 5
 719.37109375 280 l 1
 689.572265625 111 537.236328125 -10 378.236328125 -10 c 0
 219.236328125 -10 109.572265625 111 139.37109375 280 c 1
 224.37109375 280 l 1
 203.388671875 161 274.4609375 65 391.4609375 65 c 0
 508.4609375 65 613.388671875 161 634.37109375 280 c 5
EndSplineSet
EndChar

StartChar: o
Encoding: 111 111 14
Width: 650
VWidth: 0
Flags: HMW
AnchorPoint: "ced" 325 0 basechar 0
AnchorPoint: "dot" 443.668 673 basechar 0
LayerCount: 2
Fore
SplineSet
185.844726562 260 m 0
 166.625 151 229.4609375 65 336.4609375 65 c 0
 443.4609375 65 536.625 151 555.844726562 260 c 4
 575.064453125 369 512.228515625 455 405.228515625 455 c 0
 298.228515625 455 205.064453125 369 185.844726562 260 c 0
100.844726562 260 m 0
 127.118164062 409 269.453125 530 418.453125 530 c 0
 567.453125 530 667.118164062 409 640.844726562 260 c 0
 614.572265625 111 472.236328125 -10 323.236328125 -10 c 0
 174.236328125 -10 74.572265625 111 100.844726562 260 c 0
EndSplineSet
EndChar

StartChar: B
Encoding: 66 66 15
Width: 695
VWidth: 0
Flags: HMW
AnchorPoint: "ced" 327 0 basechar 0
AnchorPoint: "dot" 442.009 760 basechar 0
LayerCount: 2
Fore
SplineSet
430.177734375 398 m 5
 513.177734375 398 582.41015625 422 597.397460938 507 c 4
 612.385742188 592 552.322265625 620 469.322265625 620 c 5
 483.428710938 700 l 1
 612.428710938 700 709.262695312 631 687.397460938 507 c 0
 665.709960938 384 548.951171875 340 419.951171875 340 c 1
 430.177734375 398 l 5
223.428710938 700 m 1
 313.428710938 700 l 1
 190 0 l 1
 100 0 l 1
 223.428710938 700 l 1
114.106445312 80 m 1
 414.106445312 80 l 1
 400 0 l 1
 100 0 l 1
 114.106445312 80 l 1
223.428710938 700 m 1
 483.428710938 700 l 1
 469.322265625 620 l 1
 209.322265625 620 l 1
 223.428710938 700 l 1
170.177734375 398 m 1
 470.177734375 398 l 1
 456.072265625 318 l 1
 156.072265625 318 l 1
 170.177734375 398 l 1
414.106445312 80 m 5
 497.106445312 80 573.514648438 105 589.383789062 195 c 4
 605.252929688 285 539.072265625 318 456.072265625 318 c 5
 466.123046875 375 l 1
 595.123046875 375 702.129882812 324 679.383789062 195 c 0
 656.637695312 66 529 0 400 0 c 1
 414.106445312 80 l 5
EndSplineSet
EndChar

StartChar: K
Encoding: 75 75 16
Width: 745
VWidth: 0
Flags: HMW
AnchorPoint: "ced" 665 0 basechar 0
AnchorPoint: "dot" 489.009 760 basechar 0
LayerCount: 2
Fore
SplineSet
358.823242188 413 m 1
 462.823242188 413 l 5
 720 0 l 5
 616 0 l 1
 358.823242188 413 l 1
688.428710938 700 m 1
 793.428710938 700 l 5
 226.5 207 l 5
 145.555664062 230 l 1
 688.428710938 700 l 1
223.428710938 700 m 1
 313.428710938 700 l 1
 190 0 l 1
 100 0 l 1
 223.428710938 700 l 1
EndSplineSet
EndChar

StartChar: R
Encoding: 82 82 17
Width: 718
VWidth: 0
Flags: HMW
AnchorPoint: "ced" 610 0 basechar 0
AnchorPoint: "dot" 474.009 760 basechar 0
LayerCount: 2
Fore
SplineSet
384.424804688 320 m 1
 489.424804688 320 l 1
 673 0 l 1
 568 0 l 1
 384.424804688 320 l 1
459.598632812 338 m 1
 546.598632812 338 617.120117188 392 632.108398438 477 c 0
 647.095703125 562 596.322265625 620 509.322265625 620 c 1
 523.428710938 700 l 1
 652.428710938 700 744.1484375 602 722.108398438 477 c 0
 700.243164062 353 574.4921875 258 445.4921875 258 c 1
 459.598632812 338 l 1
223.428710938 700 m 1
 313.428710938 700 l 1
 190 0 l 1
 100 0 l 1
 223.428710938 700 l 1
228.428710938 700 m 1
 523.428710938 700 l 1
 509.322265625 620 l 1
 214.322265625 620 l 1
 228.428710938 700 l 1
164.598632812 338 m 1
 459.598632812 338 l 1
 445.4921875 258 l 1
 150.4921875 258 l 1
 164.598632812 338 l 1
EndSplineSet
EndChar

StartChar: P
Encoding: 80 80 18
Width: 643
VWidth: 0
Flags: HMW
AnchorPoint: "ced" 150 0 basechar 0
AnchorPoint: "dot" 454.009 760 basechar 0
LayerCount: 2
Fore
SplineSet
419.598632812 338 m 1
 507.598632812 338 577.120117188 392 592.108398438 477 c 0
 607.095703125 562 557.322265625 620 469.322265625 620 c 1
 483.428710938 700 l 1
 612.428710938 700 704.1484375 602 682.108398438 477 c 0
 660.243164062 353 534.4921875 258 405.4921875 258 c 1
 419.598632812 338 l 1
223.428710938 700 m 1
 313.428710938 700 l 1
 190 0 l 1
 100 0 l 1
 223.428710938 700 l 1
228.428710938 700 m 1
 483.428710938 700 l 1
 469.322265625 620 l 1
 214.322265625 620 l 1
 228.428710938 700 l 1
164.598632812 338 m 1
 419.598632812 338 l 1
 405.4921875 258 l 1
 150.4921875 258 l 1
 164.598632812 338 l 1
EndSplineSet
EndChar

StartChar: Q
Encoding: 81 81 19
Width: 849
VWidth: 0
Flags: HMW
AnchorPoint: "ced" 425 0 basechar 0
AnchorPoint: "dot" 559.009 760 basechar 0
LayerCount: 2
Fore
SplineSet
727.241210938 -44 m 1
 506.497070312 224 l 1
 574.724609375 282 l 5
 795.64453125 15 l 5
 727.241210938 -44 l 1
221.71484375 350 m 0
 194.20703125 194 286.342773438 70 437.342773438 70 c 0
 588.342773438 70 724.20703125 194 751.71484375 350 c 0
 779.221679688 506 687.0859375 630 536.0859375 630 c 0
 385.0859375 630 249.221679688 506 221.71484375 350 c 0
131.71484375 350 m 0
 166.803710938 549 355.192382812 710 550.192382812 710 c 0
 745.192382812 710 876.803710938 549 841.71484375 350 c 0
 806.625 151 618.236328125 -10 423.236328125 -10 c 0
 228.236328125 -10 96.625 151 131.71484375 350 c 0
EndSplineSet
EndChar

StartChar: J
Encoding: 74 74 20
Width: 599
VWidth: 0
Flags: HMW
AnchorPoint: "ced" 265 0 basechar 0
AnchorPoint: "dot" 399.009 760 basechar 0
LayerCount: 2
Fore
SplineSet
459.844726562 260 m 1
 537.428710938 700 l 1
 622.428710938 700 l 1
 544.844726562 260 l 1
 459.844726562 260 l 1
459.844726562 260 m 1
 544.844726562 260 l 1
 515.045898438 91 402.236328125 -10 263.236328125 -10 c 0
 155.236328125 -10 80.9931640625 51 57.68359375 157 c 1
 132.20703125 194 l 5
 152.572265625 111 197.4609375 65 276.4609375 65 c 0
 373.4609375 65 438.862304688 141 459.844726562 260 c 1
EndSplineSet
EndChar

StartChar: S
Encoding: 83 83 21
Width: 625
VWidth: 0
Flags: HMW
AnchorPoint: "ced" 315 0 basechar 0
AnchorPoint: "dot" 469.009 760 basechar 0
LayerCount: 2
Fore
SplineSet
514.383789062 195 m 1
 599.383789062 195 l 1
 576.637695312 66 475.236328125 -10 326.236328125 -10 c 0
 197.236328125 -10 121.874023438 56 69.9248046875 113 c 1
 135.033203125 176 l 5
 175.275390625 132 241.4609375 65 339.4609375 65 c 0
 432.4609375 65 498.514648438 105 514.383789062 195 c 1
267.395507812 524 m 1
 181.513671875 519 l 1
 201.0859375 630 321.192382812 710 440.192382812 710 c 0
 539.192382812 710 614.844726562 674 657.67578125 622 c 1
 597.80078125 566 l 1
 560.559570312 610 494.967773438 635 436.967773438 635 c 0
 333.967773438 635 277.446289062 581 267.395507812 524 c 1
401.236328125 404 m 0
 523.776367188 382.220703125 622.306640625 325 599.383789062 195 c 1
 514.383789062 195 l 1
 526.903320312 266 473.787109375 312.458007812 377.482421875 326 c 0
 257.049804688 342.934570312 161.236328125 404 181.513671875 519 c 1
 267.395507812 524 l 1
 255.934570312 459 306.17578125 420.895507812 401.236328125 404 c 0
EndSplineSet
EndChar

StartChar: M
Encoding: 77 77 22
Width: 932
VWidth: 0
Flags: HMW
AnchorPoint: "ced" 790 0 basechar 0
AnchorPoint: "dot" 604.009 760 basechar 0
LayerCount: 2
Fore
SplineSet
512.922851562 130 m 1
 464.922851562 130 l 1
 477.265625 200 l 5
 525.265625 200 l 5
 512.922851562 130 l 1
854.849609375 640 m 1
 875.428710938 700 l 1
 955.428710938 700 l 1
 951.90234375 680 l 1
 854.849609375 640 l 1
931.612304688 650 m 1
 512.922851562 130 l 1
 477.265625 200 l 5
 875.428710938 700 l 1
 931.612304688 650 l 1
951.90234375 680 m 1
 832 0 l 1
 742 0 l 1
 854.849609375 640 l 1
 951.90234375 680 l 1
302.849609375 640 m 1
 219.90234375 680 l 1
 223.428710938 700 l 1
 303.428710938 700 l 1
 302.849609375 640 l 1
229.612304688 650 m 1
 303.428710938 700 l 1
 525.265625 200 l 5
 464.922851562 130 l 1
 229.612304688 650 l 1
219.90234375 680 m 1
 302.849609375 640 l 1
 190 0 l 1
 100 0 l 1
 219.90234375 680 l 1
EndSplineSet
EndChar

StartChar: Y
Encoding: 89 89 23
Width: 680
VWidth: 0
Flags: HMW
AnchorPoint: "ced" 345 0 basechar 0
AnchorPoint: "dot" 471.009 760 basechar 0
LayerCount: 2
Fore
SplineSet
347.016601562 295 m 1
 437.016601562 295 l 1
 385 0 l 1
 295 0 l 1
 347.016601562 295 l 1
153.428710938 700 m 1
 253.428710938 700 l 1
 437.016601562 295 l 1
 373.262695312 217 l 1
 153.428710938 700 l 1
673.428710938 700 m 1
 773.428710938 700 l 1
 383.262695312 217 l 1
 347.016601562 295 l 1
 673.428710938 700 l 1
EndSplineSet
EndChar

StartChar: W
Encoding: 87 87 24
Width: 1065
VWidth: 0
Flags: HMW
AnchorPoint: "ced" 750 0 basechar 0
AnchorPoint: "dot" 664.009 760 basechar 0
LayerCount: 2
Fore
SplineSet
613.428710938 700 m 1
 698.428710938 700 l 1
 692.666015625 690 l 1
 615.666015625 690 l 1
 613.428710938 700 l 1
790 0 m 1
 710 0 l 1
 711.763671875 10 l 1
 791.763671875 10 l 1
 790 0 l 1
698.428710938 700 m 1
 791.763671875 10 l 1
 710 0 l 1
 615.666015625 690 l 1
 698.428710938 700 l 1
790 0 m 1
 711.763671875 10 l 1
 1053.42871094 700 l 1
 1143.42871094 700 l 1
 790 0 l 1
355 0 m 1
 275 0 l 1
 276.763671875 10 l 1
 356.763671875 10 l 1
 355 0 l 1
258.428710938 700 m 1
 356.763671875 10 l 1
 275 0 l 1
 168.428710938 700 l 1
 258.428710938 700 l 1
355 0 m 1
 276.763671875 10 l 1
 613.428710938 700 l 1
 692.666015625 690 l 1
 355 0 l 1
EndSplineSet
EndChar

StartChar: N
Encoding: 78 78 25
Width: 790
VWidth: 0
Flags: HMW
AnchorPoint: "ced" 650 0 basechar 0
AnchorPoint: "dot" 534.009 760 basechar 0
LayerCount: 2
Fore
SplineSet
690 0 m 1
 610 0 l 1
 614.231445312 24 l 1
 692.46875 14 l 1
 690 0 l 1
303.428710938 700 m 1
 299.90234375 680 l 1
 219.90234375 680 l 1
 223.428710938 700 l 1
 303.428710938 700 l 1
217.2578125 665 m 1
 303.428710938 700 l 1
 696.171875 35 l 1
 610 0 l 1
 217.2578125 665 l 1
723.428710938 700 m 1
 813.428710938 700 l 1
 690 0 l 1
 603.526367188 20 l 1
 723.428710938 700 l 1
223.428710938 700 m 1
 309.90234375 680 l 1
 190 0 l 1
 100 0 l 1
 223.428710938 700 l 1
EndSplineSet
EndChar

StartChar: X
Encoding: 88 88 26
Width: 750
VWidth: 0
Flags: HMW
AnchorPoint: "ced" 645 0 basechar 0
AnchorPoint: "dot" 508.009 760 basechar 0
LayerCount: 2
Fore
SplineSet
188.428710938 700 m 1
 293.428710938 700 l 1
 705 0 l 1
 600 0 l 1
 188.428710938 700 l 1
703.428710938 700 m 1
 808.428710938 700 l 1
 150 0 l 1
 45 0 l 1
 703.428710938 700 l 1
EndSplineSet
EndChar

StartChar: Z
Encoding: 90 90 27
Width: 680
VWidth: 0
Flags: HMW
AnchorPoint: "ced" 495 0 basechar 0
AnchorPoint: "dot" 469.009 760 basechar 0
LayerCount: 2
Fore
SplineSet
706.0859375 630 m 1
 696.0859375 630 l 1
 708.428710938 700 l 1
 718.428710938 700 l 1
 706.0859375 630 l 1
77.3427734375 70 m 1
 87.3427734375 70 l 1
 75 0 l 1
 65 0 l 1
 77.3427734375 70 l 1
208.428710938 700 m 1
 708.428710938 700 l 1
 694.322265625 620 l 1
 194.322265625 620 l 1
 208.428710938 700 l 1
89.1064453125 80 m 1
 629.106445312 80 l 1
 615 0 l 1
 75 0 l 1
 89.1064453125 80 l 1
606.0859375 630 m 1
 706.0859375 630 l 1
 177.342773438 70 l 5
 77.3427734375 70 l 1
 606.0859375 630 l 1
EndSplineSet
EndChar

StartChar: l
Encoding: 108 108 28
Width: 265
VWidth: 0
Flags: HMW
AnchorPoint: "ced" 133 0 basechar 0
AnchorPoint: "dot" 272.827 793 basechar 0
LayerCount: 2
Fore
SplineSet
218.71875 730 m 1
 303.71875 730 l 1
 175 0 l 1
 90 0 l 1
 218.71875 730 l 1
EndSplineSet
EndChar

StartChar: b
Encoding: 98 98 29
Width: 655
VWidth: 0
Flags: HMW
AnchorPoint: "ced" 356 0 basechar 0
AnchorPoint: "dot" 478.668 673 basechar 0
LayerCount: 2
Fore
SplineSet
215.844726562 260 m 0
 194.862304688 141 259.4609375 65 356.4609375 65 c 0
 453.4609375 65 539.862304688 141 560.844726562 260 c 4
 581.828125 379 522.228515625 455 425.228515625 455 c 0
 328.228515625 455 236.828125 379 215.844726562 260 c 0
180.844726562 260 m 0
 207.118164062 409 299.453125 530 448.453125 530 c 0
 577.453125 530 673.880859375 419 645.844726562 260 c 0
 617.80859375 101 482.236328125 -10 353.236328125 -10 c 0
 204.236328125 -10 154.572265625 111 180.844726562 260 c 0
213.71875 730 m 1
 298.71875 730 l 1
 170 0 l 1
 85 0 l 1
 213.71875 730 l 1
EndSplineSet
EndChar

StartChar: c
Encoding: 99 99 30
Width: 573
VWidth: 0
Flags: HMW
AnchorPoint: "ced" 325 0 basechar 0
AnchorPoint: "dot" 443.668 673 basechar 0
LayerCount: 2
Fore
SplineSet
185.844726562 260 m 4
 166.625 151 229.4609375 65 336.4609375 65 c 4
 400.4609375 65 459.927734375 96 505.567382812 145 c 5
 549.221679688 92 l 5
 490.9375 28 410.236328125 -10 323.236328125 -10 c 4
 174.236328125 -10 74.572265625 111 100.844726562 260 c 4
 127.118164062 409 269.453125 530 418.453125 530 c 4
 505.453125 530 571.576171875 491 607.467773438 428 c 5
 546.123046875 375 l 5
 517.762695312 424 469.228515625 455 405.228515625 455 c 4
 298.228515625 455 205.064453125 369 185.844726562 260 c 4
EndSplineSet
EndChar

StartChar: d
Encoding: 100 100 31
Width: 655
VWidth: 0
Flags: HMW
AnchorPoint: "ced" 300 0 basechar 0
AnchorPoint: "dot" 413.668 673 basechar 0
LayerCount: 2
Fore
SplineSet
530.844726562 260 m 0
 551.828125 379 487.228515625 455 390.228515625 455 c 0
 293.228515625 455 206.828125 379 185.844726562 260 c 0
 164.862304688 141 224.4609375 65 321.4609375 65 c 0
 418.4609375 65 509.862304688 141 530.844726562 260 c 0
565.844726562 260 m 0
 539.572265625 111 447.236328125 -10 298.236328125 -10 c 0
 169.236328125 -10 72.80859375 101 100.844726562 260 c 0
 128.880859375 419 264.453125 530 393.453125 530 c 0
 542.453125 530 592.118164062 409 565.844726562 260 c 0
698.71875 730 m 5
 570 0 l 5
 485 0 l 1
 613.71875 730 l 1
 698.71875 730 l 5
EndSplineSet
EndChar

StartChar: k
Encoding: 107 107 32
Width: 615
VWidth: 0
Flags: HMW
AnchorPoint: "ced" 535 0 basechar 0
AnchorPoint: "dot" 443.668 673 basechar 0
LayerCount: 2
Fore
SplineSet
296.311523438 291 m 1
 384.837890625 311 l 1
 590 0 l 1
 492 0 l 1
 296.311523438 291 l 1
555.690429688 520 m 1
 661.690429688 520 l 1
 189.395507812 110 l 1
 137.154296875 154 l 1
 555.690429688 520 l 1
213.71875 730 m 1
 298.71875 730 l 1
 170 0 l 1
 85 0 l 1
 213.71875 730 l 1
EndSplineSet
EndChar

StartChar: e
Encoding: 101 101 33
Width: 615
VWidth: 0
Flags: HMW
AnchorPoint: "ced" 320 0 basechar 0
AnchorPoint: "dot" 428.668 673 basechar 0
LayerCount: 2
Fore
SplineSet
610.844726562 260 m 1
 605.555664062 230 l 1
 520.555664062 230 l 1
 525.844726562 260 l 1
 610.844726562 260 l 1
520.555664062 230 m 1
 154.555664062 230 l 1
 166.369140625 297 l 1
 532.369140625 297 l 1
 520.555664062 230 l 1
525.844726562 260 m 1
 546.828125 379 497.228515625 455 390.228515625 455 c 0
 283.228515625 455 206.828125 379 185.844726562 260 c 1
 100.844726562 260 l 1
 128.880859375 419 264.453125 530 403.453125 530 c 0
 542.453125 530 638.880859375 419 610.844726562 260 c 1
 525.844726562 260 l 1
100.844726562 260 m 1
 185.844726562 260 l 1
 164.862304688 141 224.4609375 65 331.4609375 65 c 0
 395.4609375 65 463.280273438 98 508.919921875 147 c 1
 554.221679688 92 l 1
 495.9375 28 405.236328125 -10 318.236328125 -10 c 0
 169.236328125 -10 72.80859375 101 100.844726562 260 c 1
EndSplineSet
EndChar

StartChar: p
Encoding: 112 112 34
Width: 655
VWidth: 0
Flags: HMW
AnchorPoint: "ced" 355 0 basechar 0
AnchorPoint: "dot" 478.668 673 basechar 0
LayerCount: 2
Fore
SplineSet
215.844726562 260 m 0
 194.862304688 141 259.4609375 65 356.4609375 65 c 0
 453.4609375 65 539.862304688 141 560.844726562 260 c 0
 581.828125 379 522.228515625 455 425.228515625 455 c 0
 328.228515625 455 236.828125 379 215.844726562 260 c 0
180.844726562 260 m 0
 207.118164062 409 299.453125 530 448.453125 530 c 0
 577.453125 530 673.880859375 419 645.844726562 260 c 0
 617.80859375 101 482.236328125 -10 353.236328125 -10 c 0
 204.236328125 -10 154.572265625 111 180.844726562 260 c 0
49.734375 -200 m 1
 176.690429688 520 l 1
 261.690429688 520 l 1
 134.734375 -200 l 1
 49.734375 -200 l 1
EndSplineSet
EndChar

StartChar: q
Encoding: 113 113 35
Width: 655
VWidth: 0
Flags: HMW
AnchorPoint: "ced" 300 0 basechar 0
AnchorPoint: "dot" 413.668 673 basechar 0
LayerCount: 2
Fore
SplineSet
530.844726562 260 m 0
 551.828125 379 487.228515625 455 390.228515625 455 c 0
 293.228515625 455 206.828125 379 185.844726562 260 c 0
 164.862304688 141 224.4609375 65 321.4609375 65 c 0
 418.4609375 65 509.862304688 141 530.844726562 260 c 0
565.844726562 260 m 0
 539.572265625 111 447.236328125 -10 298.236328125 -10 c 0
 169.236328125 -10 72.80859375 101 100.844726562 260 c 0
 128.880859375 419 264.453125 530 393.453125 530 c 0
 542.453125 530 592.118164062 409 565.844726562 260 c 0
534.734375 -200 m 1
 449.734375 -200 l 1
 576.690429688 520 l 1
 661.690429688 520 l 1
 534.734375 -200 l 1
EndSplineSet
EndChar

StartChar: h
Encoding: 104 104 36
Width: 635
VWidth: 0
Flags: HMW
AnchorPoint: "ced" 510 0 basechar 0
AnchorPoint: "dot" 468.668 673 basechar 0
LayerCount: 2
Fore
SplineSet
607.8984375 300 m 1
 555 0 l 1
 470 0 l 5
 522.8984375 300 l 5
 607.8984375 300 l 1
213.71875 730 m 1
 298.71875 730 l 1
 170 0 l 1
 85 0 l 1
 213.71875 730 l 1
522.8984375 300 m 5
 538.590820312 389 520.228515625 455 410.228515625 455 c 0
 311.228515625 455 238.767578125 390 219.37109375 280 c 1
 184.37109375 280 l 1
 208.880859375 419 304.453125 530 443.453125 530 c 0
 572.453125 530 630.64453125 429 607.8984375 300 c 1
 522.8984375 300 l 5
EndSplineSet
EndChar

StartChar: n
Encoding: 110 110 37
Width: 635
VWidth: 0
Flags: HMW
AnchorPoint: "ced" 520 0 basechar 0
AnchorPoint: "dot" 448.668 673 basechar 0
LayerCount: 2
Fore
SplineSet
607.8984375 300 m 1
 555 0 l 1
 470 0 l 5
 522.8984375 300 l 5
 607.8984375 300 l 1
176.690429688 520 m 1
 261.690429688 520 l 1
 170 0 l 1
 85 0 l 1
 176.690429688 520 l 1
522.8984375 300 m 5
 538.767578125 390 520.228515625 455 410.228515625 455 c 0
 312.228515625 455 238.767578125 390 219.37109375 280 c 1
 184.37109375 280 l 1
 208.880859375 419 304.453125 530 443.453125 530 c 0
 572.453125 530 630.64453125 429 607.8984375 300 c 1
 522.8984375 300 l 5
EndSplineSet
EndChar

StartChar: m
Encoding: 109 109 38
Width: 900
VWidth: 0
Flags: HMW
AnchorPoint: "ced" 785 0 basechar 0
AnchorPoint: "dot" 568.668 673 basechar 0
LayerCount: 2
Fore
SplineSet
877.8984375 300 m 1
 825 0 l 1
 740 0 l 1
 792.8984375 300 l 1
 877.8984375 300 l 1
792.8984375 300 m 1
 808.767578125 390 801.110351562 460 706.110351562 460 c 0
 623.110351562 460 565.767578125 390 546.37109375 280 c 1
 511.37109375 280 l 1
 535.880859375 419 614.453125 530 738.453125 530 c 0
 862.453125 530 900.64453125 429 877.8984375 300 c 1
 792.8984375 300 l 1
549.8984375 300 m 1
 497 0 l 1
 413 0 l 1
 465.8984375 300 l 1
 549.8984375 300 l 1
176.690429688 520 m 1
 261.690429688 520 l 1
 170 0 l 1
 85 0 l 1
 176.690429688 520 l 1
465.8984375 300 m 1
 481.767578125 390 476.110351562 460 381.110351562 460 c 0
 298.110351562 460 238.767578125 390 219.37109375 280 c 1
 184.37109375 280 l 1
 208.880859375 419 289.453125 530 413.453125 530 c 0
 537.453125 530 572.64453125 429 549.8984375 300 c 1
 465.8984375 300 l 1
EndSplineSet
EndChar

StartChar: r
Encoding: 114 114 39
Width: 410
VWidth: 0
Flags: HMW
AnchorPoint: "ced" 140 0 basechar 0
AnchorPoint: "dot" 338.668 673 basechar 0
LayerCount: 2
Fore
SplineSet
176.690429688 520 m 1
 261.690429688 520 l 1
 170 0 l 1
 85 0 l 1
 176.690429688 520 l 1
458.465820312 445 m 1
 438.465820312 445 l 2
 314.465820312 445 237.00390625 380 217.608398438 270 c 1
 182.608398438 270 l 1
 207.118164062 409 302.690429688 520 471.690429688 520 c 1
 458.465820312 445 l 1
EndSplineSet
EndChar

StartChar: u
Encoding: 117 117 40
Width: 635
VWidth: 0
Flags: HMW
AnchorPoint: "ced" 285 0 basechar 0
AnchorPoint: "dot" 423.668 673 basechar 0
LayerCount: 2
Fore
SplineSet
118.791992188 220 m 1
 171.690429688 520 l 1
 256.690429688 520 l 1
 203.791992188 220 l 1
 118.791992188 220 l 1
550 0 m 1
 465 0 l 1
 556.690429688 520 l 1
 641.690429688 520 l 1
 550 0 l 1
203.791992188 220 m 1
 187.922851562 130 206.4609375 65 316.4609375 65 c 0
 414.4609375 65 487.922851562 130 507.318359375 240 c 1
 542.318359375 240 l 1
 517.80859375 101 422.236328125 -10 283.236328125 -10 c 0
 154.236328125 -10 96.0458984375 91 118.791992188 220 c 1
 203.791992188 220 l 1
EndSplineSet
EndChar

StartChar: g
Encoding: 103 103 41
Width: 655
VWidth: 0
Flags: HMW
AnchorPoint: "dot" 418.668 673 basechar 0
LayerCount: 2
Fore
SplineSet
297.432617188 -145 m 1
 284.208007812 -220 l 1
 147.208007812 -220 73.671875 -172 37.95703125 -108 c 1
 103.831054688 -52 l 5
 132.19140625 -101 184.432617188 -145 297.432617188 -145 c 1
573.526367188 20 m 1
 488.526367188 20 l 1
 576.690429688 520 l 1
 661.690429688 520 l 1
 573.526367188 20 l 1
565.844726562 260 m 0
 539.572265625 111 447.236328125 -10 298.236328125 -10 c 0
 169.236328125 -10 72.80859375 101 100.844726562 260 c 0
 128.880859375 419 264.453125 530 393.453125 530 c 0
 542.453125 530 592.118164062 409 565.844726562 260 c 0
530.844726562 260 m 0
 551.828125 379 487.228515625 455 390.228515625 455 c 0
 293.228515625 455 206.828125 379 185.844726562 260 c 0
 164.862304688 141 224.4609375 65 321.4609375 65 c 0
 418.4609375 65 509.862304688 141 530.844726562 260 c 0
488.526367188 20 m 1
 573.526367188 20 l 1
 549.016601562 -119 413.208007812 -220 284.208007812 -220 c 1
 297.432617188 -145 l 1
 374.432617188 -145 471.0703125 -79 488.526367188 20 c 1
EndSplineSet
EndChar

StartChar: i
Encoding: 105 105 42
Width: 255
VWidth: 0
Flags: HMW
AnchorPoint: "ced" 125 0 basechar 0
LayerCount: 2
Fore
SplineSet
189.254882812 682 m 4
 194.897460938 714 225.482421875 740 257.482421875 740 c 4
 289.482421875 740 310.897460938 714 305.254882812 682 c 4
 299.612304688 650 269.028320312 624 237.028320312 624 c 4
 205.028320312 624 183.612304688 650 189.254882812 682 c 4
176.690429688 520 m 1
 261.690429688 520 l 1
 170 0 l 1
 85 0 l 1
 176.690429688 520 l 1
EndSplineSet
EndChar

StartChar: t
Encoding: 116 116 43
Width: 420
VWidth: 0
Flags: HMW
AnchorPoint: "ced" 257 0 basechar 0
AnchorPoint: "dot" 403.668 673 basechar 0
LayerCount: 2
Fore
SplineSet
131.690429688 520 m 1
 461.690429688 520 l 1
 448.465820312 445 l 1
 118.465820312 445 l 1
 131.690429688 520 l 1
219.685546875 140 m 1
 134.685546875 140 l 1
 228.66796875 673 l 1
 313.66796875 673 l 1
 219.685546875 140 l 1
275.4609375 65 m 1
 319.4609375 65 349.811523438 84 370.162109375 103 c 5
 399.405273438 42 l 1
 367.291992188 13 318.236328125 -10 256.236328125 -10 c 1
 275.4609375 65 l 1
219.685546875 140 m 1
 212.6328125 100 227.4609375 65 275.4609375 65 c 1
 256.236328125 -10 l 1
 167.236328125 -10 120.755859375 61 134.685546875 140 c 1
 219.685546875 140 l 1
EndSplineSet
EndChar

StartChar: a
Encoding: 97 97 44
Width: 580
VWidth: 0
Flags: HMW
AnchorPoint: "ced" 455 0 basechar 0
AnchorPoint: "ring" 403.668 673 basechar 0
AnchorPoint: "dot" 403.668 673 basechar 0
LayerCount: 2
Fore
SplineSet
375.013671875 312 m 1
 525.013671875 312 l 1
 513.729492188 248 l 1
 393.729492188 248 l 1
 375.013671875 312 l 1
478.1875 330 m 1
 492.293945312 410 474.228515625 455 368.228515625 455 c 1
 387.453125 530 l 1
 530.453125 530 584.170898438 449 563.1875 330 c 1
 478.1875 330 l 1
368.228515625 455 m 1
 294.228515625 455 251.172851562 432 195.120117188 392 c 1
 159.346679688 450 l 1
 224.987304688 499 285.453125 530 387.453125 530 c 1
 368.228515625 455 l 1
478.1875 330 m 1
 563.1875 330 l 1
 505 0 l 1
 420 0 l 1
 478.1875 330 l 1
155.331054688 155 m 1
 145.103515625 97 178.4609375 65 281.4609375 65 c 0
 359.4609375 65 437.6328125 100 451.739257812 180 c 1
 486.739257812 180 l 1
 467.51953125 71 377.236328125 -10 238.236328125 -10 c 0
 139.236328125 -10 50.2294921875 41 71.2119140625 160 c 1
 155.331054688 155 l 1
375.013671875 312 m 1
 393.729492188 248 l 1
 244.729492188 248 170.318359375 240 155.331054688 155 c 1
 71.2119140625 160 l 1
 95.0166015625 295 238.013671875 312 375.013671875 312 c 1
EndSplineSet
EndChar

StartChar: j
Encoding: 106 106 45
Width: 255
VWidth: 0
Flags: HMW
LayerCount: 2
Fore
SplineSet
193.254882812 682 m 0
 198.897460938 714 229.482421875 740 261.482421875 740 c 0
 293.482421875 740 314.897460938 714 309.254882812 682 c 0
 303.612304688 650 273.028320312 624 241.028320312 624 c 0
 209.028320312 624 187.612304688 650 193.254882812 682 c 0
  Spiro
    193.255 682 o
    206.32 711.233 o
    230.854 732.089 o
    261.482 740 o
    289.32 732.089 o
    306.499 711.233 o
    309.255 682 o
    296.189 652.767 o
    271.656 631.911 o
    241.028 624 o
    213.19 631.911 o
    196.011 652.767 o
    0 0 z
  EndSpiro
180.690429688 520 m 1
 265.690429688 520 l 1
 163.419921875 -60 l 1
 78.419921875 -60 l 1
 180.690429688 520 l 1
  Spiro
    180.69 520 v
    265.69 520 v
    163.42 -60 v
    78.4204 -60 v
    0 0 z
  EndSpiro
2.1962890625 -135 m 5
 -5.0283203125 -210 l 5
 -62.0283203125 -210 -108.854492188 -192 -129.859375 -158 c 1
 -79.103515625 -97 l 1
 -65.4541015625 -116 -40.8037109375 -135 2.1962890625 -135 c 5
78.419921875 -60 m 1
 163.419921875 -60 l 1
 149.490234375 -139 83.9716796875 -210 -5.0283203125 -210 c 5
 2.1962890625 -135 l 5
 39.1962890625 -135 71.3671875 -100 78.419921875 -60 c 1
EndSplineSet
EndChar

StartChar: s
Encoding: 115 115 46
Width: 520
VWidth: 0
Flags: HMW
AnchorPoint: "ced" 265 0 basechar 0
AnchorPoint: "dot" 383.668 673 basechar 0
LayerCount: 2
Fore
SplineSet
416.44921875 150 m 1
 501.44921875 150 l 1
 487.51953125 71 412.236328125 -10 273.236328125 -10 c 0
 164.236328125 -10 106.524414062 37 63.337890625 104 c 1
 130.859375 158 l 1
 168.04296875 108 208.4609375 65 286.4609375 65 c 0
 359.4609375 65 405.869140625 90 416.44921875 150 c 1
223.415039062 388 m 1
 138.415039062 388 l 1
 151.815429688 464 239.453125 530 348.453125 530 c 0
 457.453125 530 503.458007812 496 536.994140625 448 c 1
 474.767578125 390 l 5
 448.41015625 422 423.228515625 455 335.228515625 455 c 4
 257.228515625 455 229.057617188 420 223.415039062 388 c 1
334.1328125 307 m 0
 447.782226562 288 520.844726562 260 501.44921875 150 c 1
 416.44921875 150 l 1
 425.265625 200 397.520507812 220.76171875 291.61328125 236 c 0
 190.696289062 250.520507812 121.6640625 293 138.415039062 388 c 1
 223.415039062 388 l 1
 216.361328125 348 239.2109375 322.869140625 334.1328125 307 c 0
EndSplineSet
EndChar

StartChar: v
Encoding: 118 118 47
Width: 590
VWidth: 0
Flags: HMW
AnchorPoint: "ced" 297 0 basechar 0
AnchorPoint: "dot" 411.668 673 basechar 0
LayerCount: 2
Fore
SplineSet
335 0 m 1
 255 0 l 1
 255.881835938 5 l 1
 335.881835938 5 l 1
 335 0 l 1
255.881835938 5 m 1
 561.690429688 520 l 1
 646.690429688 520 l 1
 335 0 l 1
 255.881835938 5 l 1
126.690429688 520 m 1
 211.690429688 520 l 1
 335.881835938 5 l 1
 255 0 l 1
 126.690429688 520 l 1
EndSplineSet
EndChar

StartChar: f
Encoding: 102 102 48
Width: 375
VWidth: 0
Flags: HMW
AnchorPoint: "ced" 155 0 basechar 0
LayerCount: 2
Fore
SplineSet
136.690429688 520 m 5
 439.690429688 520 l 5
 426.465820312 445 l 5
 123.465820312 445 l 5
 136.690429688 520 l 5
304.033203125 590 m 5
 200 0 l 5
 115 0 l 5
 219.033203125 590 l 5
 304.033203125 590 l 5
385.2578125 665 m 5
 392.482421875 740 l 5
 454.482421875 740 495.602539062 718 516.3125 688 c 5
 465.556640625 627 l 5
 450.259765625 648 429.2578125 665 385.2578125 665 c 5
304.033203125 590 m 5
 219.033203125 590 l 5
 232.962890625 669 303.482421875 740 392.482421875 740 c 5
 385.2578125 665 l 5
 330.2578125 665 310.91015625 629 304.033203125 590 c 5
EndSplineSet
Substitution2: "fi-1" fi
EndChar

StartChar: y
Encoding: 121 121 49
Width: 579
VWidth: 0
Flags: HMW
AnchorPoint: "dot" 413.668 673 basechar 0
LayerCount: 2
Fore
SplineSet
130.690429688 520 m 1
 220.690429688 520 l 1
 354.881835938 5 l 1
 269 0 l 1
 130.690429688 520 l 1
139.196289062 -135 m 1
 131.971679688 -210 l 1
 74.9716796875 -210 29.5556640625 -184 8.55078125 -150 c 1
 59.306640625 -89 l 5
 72.95703125 -108 95.1962890625 -135 139.196289062 -135 c 1
233.419921875 -60 m 2
 550.690429688 520 l 1
 635.690429688 520 l 1
 318.419921875 -60 l 2
 274.900390625 -139.55859375 220.971679688 -210 131.971679688 -210 c 1
 139.196289062 -135 l 1
 177.196289062 -135 211.51171875 -100.05078125 233.419921875 -60 c 2
EndSplineSet
EndChar

StartChar: w
Encoding: 119 119 50
Width: 795
VWidth: 0
Flags: HMW
AnchorPoint: "ced" 565 0 basechar 0
AnchorPoint: "dot" 516.668 673 basechar 0
LayerCount: 2
Fore
SplineSet
456.690429688 520 m 1
 521.690429688 520 l 1
 512.874023438 470 l 5
 447.874023438 470 l 5
 456.690429688 520 l 1
605 0 m 1
 530 0 l 1
 530.881835938 5 l 1
 609.408203125 25 l 1
 605 0 l 1
530.881835938 5 m 1
 761.690429688 520 l 1
 846.690429688 520 l 1
 605 0 l 1
 530.881835938 5 l 1
457.874023438 470 m 5
 521.690429688 520 l 1
 599.408203125 25 l 1
 530 0 l 1
 457.874023438 470 l 5
265 0 m 1
 190 0 l 1
 194.408203125 25 l 1
 265.881835938 5 l 1
 265 0 l 1
204.408203125 25 m 1
 456.690429688 520 l 1
 502.874023438 470 l 5
 265 0 l 1
 204.408203125 25 l 1
131.690429688 520 m 1
 216.690429688 520 l 1
 265.881835938 5 l 1
 190 0 l 1
 131.690429688 520 l 1
EndSplineSet
EndChar

StartChar: x
Encoding: 120 120 51
Width: 615
VWidth: 0
Flags: HMW
AnchorPoint: "ced" 515 0 basechar 0
AnchorPoint: "dot" 423.668 673 basechar 0
LayerCount: 2
Fore
SplineSet
40 0 m 1
 546.690429688 520 l 1
 646.690429688 520 l 5
 140 0 l 5
 40 0 l 1
151.690429688 520 m 1
 251.690429688 520 l 5
 575 0 l 5
 475 0 l 1
 151.690429688 520 l 1
EndSplineSet
EndChar

StartChar: z
Encoding: 122 122 52
Width: 570
VWidth: 0
Flags: HMW
AnchorPoint: "ced" 445 0 basechar 0
AnchorPoint: "dot" 408.668 673 basechar 0
LayerCount: 2
Fore
SplineSet
66.4609375 65 m 1
 86.4609375 65 l 1
 75 0 l 1
 55 0 l 1
 66.4609375 65 l 1
88.224609375 75 m 1
 528.224609375 75 l 1
 515 0 l 1
 75 0 l 1
 88.224609375 75 l 1
576.690429688 520 m 1
 596.690429688 520 l 1
 585.228515625 455 l 1
 565.228515625 455 l 1
 576.690429688 520 l 1
166.690429688 520 m 1
 576.690429688 520 l 1
 563.465820312 445 l 1
 153.465820312 445 l 1
 166.690429688 520 l 1
485.228515625 455 m 1
 585.228515625 455 l 1
 166.4609375 65 l 5
 66.4609375 65 l 1
 485.228515625 455 l 1
EndSplineSet
EndChar

StartChar: zero
Encoding: 48 48 53
Width: 600
VWidth: 0
Flags: HMW
LayerCount: 2
Fore
SplineSet
166.71484375 350 m 0
 139.03125 193 180.342773438 70 312.342773438 70 c 0
 444.342773438 70 529.03125 193 556.71484375 350 c 4
 584.397460938 507 543.0859375 630 411.0859375 630 c 0
 279.0859375 630 194.397460938 507 166.71484375 350 c 0
76.71484375 350 m 0
 111.803710938 549 250.192382812 710 425.192382812 710 c 0
 600.192382812 710 681.803710938 549 646.71484375 350 c 0
 611.625 151 473.236328125 -10 298.236328125 -10 c 0
 123.236328125 -10 41.625 151 76.71484375 350 c 0
EndSplineSet
EndChar

StartChar: one
Encoding: 49 49 54
Width: 600
VWidth: 0
Flags: HMW
LayerCount: 2
Fore
SplineSet
503.428710938 700 m 5
 499.197265625 676 l 5
 419.197265625 676 l 1
 423.428710938 700 l 1
 503.428710938 700 l 5
423.428710938 700 m 1
 469.025390625 641 l 1
 244.33984375 501 l 1
 220.506835938 570 l 1
 423.428710938 700 l 1
411.666015625 690 m 1
 503.428710938 700 l 5
 380 0 l 5
 290 0 l 1
 411.666015625 690 l 1
EndSplineSet
EndChar

StartChar: six
Encoding: 54 54 55
Width: 600
VWidth: 0
Flags: HMW
LayerCount: 2
Fore
SplineSet
168.791992188 220 m 1
 133.791992188 220 l 1
 156.538085938 349 279.465820312 445 408.465820312 445 c 1
 367.00390625 380 l 1
 259.00390625 380 184.661132812 310 168.791992188 220 c 1
168.791992188 220 m 0
 152.922851562 130 202.580078125 60 310.580078125 60 c 0
 418.580078125 60 492.922851562 130 508.791992188 220 c 4
 524.661132812 310 475.00390625 380 367.00390625 380 c 1
 408.465820312 445 l 1
 537.465820312 445 611.538085938 349 588.791992188 220 c 0
 566.045898438 91 447.236328125 -10 298.236328125 -10 c 0
 149.236328125 -10 66.0458984375 91 88.7919921875 220 c 0
 98.8896484375 277.265625 131.625 327.206054688 174.475585938 377 c 2
 452.428710938 700 l 1
 552.428710938 700 l 1
 239.560546875 351.75390625 l 1
 245.991210938 344.909179688 l 1
 202.344726562 315.858398438 177.813476562 271.161132812 168.791992188 220 c 0
EndSplineSet
EndChar

StartChar: period
Encoding: 46 46 56
Width: 230
VWidth: 0
Flags: HMW
LayerCount: 2
Fore
SplineSet
59.6982421875 55 m 4
 66.0458984375 91 100.159179688 120 136.159179688 120 c 4
 172.159179688 120 196.045898438 91 189.698242188 55 c 4
 183.350585938 19 149.236328125 -10 113.236328125 -10 c 4
 77.236328125 -10 53.3505859375 19 59.6982421875 55 c 4
EndSplineSet
EndChar

StartChar: comma
Encoding: 44 44 58
Width: 254
VWidth: 0
Flags: HMW
LayerCount: 2
Fore
SplineSet
79.6982421875 55 m 4
 86.0458984375 91 120.159179688 120 158.159179688 120 c 4
 196.159179688 120 220.045898438 91 213.698242188 55 c 4
 211.58203125 43 204.495117188 24.197265625 192.763671875 10 c 6
 77.0771484375 -130 l 5
 27.0771484375 -130 l 5
 109.118164062 -5 l 5
 89.529296875 3 74.7607421875 27 79.6982421875 55 c 4
EndSplineSet
EndChar

StartChar: two
Encoding: 50 50 60
Width: 600
VWidth: 0
Flags: HMW
LayerCount: 2
Fore
SplineSet
61.4609375 65 m 1
 81.4609375 65 l 1
 70 0 l 1
 50 0 l 1
 61.4609375 65 l 1
525.984375 516 m 1
 536.387695312 575 498.967773438 635 411.967773438 635 c 0
 322.967773438 635 259.153320312 568 209.518554688 485 c 5
 142.21875 523 l 1
 202.91015625 629 307.192382812 710 425.192382812 710 c 0
 554.192382812 710 628.44140625 615 610.984375 516 c 1
 525.984375 516 l 1
70 0 m 1
 83.224609375 75 l 1
 563.224609375 75 l 1
 550 0 l 1
 70 0 l 1
408.2578125 251 m 2
 171.4609375 65 l 1
 61.4609375 65 l 1
 355.8984375 300 l 2
 468.006835938 388.848632812 513.465820312 445 525.984375 516 c 1
 610.984375 516 l 1
 591.588867188 406 527.869140625 344.953125 408.2578125 251 c 2
EndSplineSet
EndChar

StartChar: three
Encoding: 51 51 62
Width: 600
VWidth: 0
Flags: HMW
LayerCount: 2
Fore
SplineSet
317.709960938 384 m 1
 504.709960938 384 611.185546875 347 584.736328125 197 c 0
 560.05078125 57 425.236328125 -10 298.236328125 -10 c 0
 208.236328125 -10 118.46875 14 67.4560546875 99 c 1
 131.801757812 152 l 5
 163.103515625 97 243.28515625 64 311.28515625 64 c 0
 394.28515625 64 484.04296875 108 499.736328125 197 c 0
 515.4296875 286 451.1875 330 308.1875 330 c 1
 317.709960938 384 l 1
181.1484375 602 m 1
 240.375976562 660 311.192382812 710 425.192382812 710 c 0
 559.192382812 710 630.91015625 629 613.453125 530 c 0
 592.470703125 411 485.71484375 350 311.71484375 350 c 1
 321.412109375 405 l 1
 451.412109375 405 514.700195312 452 526.690429688 520 c 0
 538.680664062 588 501.967773438 635 411.967773438 635 c 0
 328.967773438 635 276.267578125 597 227.803710938 549 c 1
 181.1484375 602 l 1
EndSplineSet
EndChar

StartChar: eight
Encoding: 56 56 63
Width: 600
VWidth: 0
Flags: HMW
LayerCount: 2
Fore
SplineSet
256.690429688 520 m 0
 244.700195312 452 291.412109375 405 371.412109375 405 c 0
 451.412109375 405 514.700195312 452 526.690429688 520 c 4
 538.680664062 588 491.967773438 635 411.967773438 635 c 0
 331.967773438 635 268.680664062 588 256.690429688 520 c 0
173.453125 530 m 0
 190.91015625 629 301.192382812 710 425.192382812 710 c 0
 549.192382812 710 630.91015625 629 613.453125 530 c 0
 592.470703125 411 485.71484375 350 361.71484375 350 c 0
 237.71484375 350 152.470703125 411 173.453125 530 c 0
82.9736328125 187 m 4
 107.659179688 327 230.709960938 384 367.709960938 384 c 0
 504.709960938 384 607.659179688 327 582.973632812 187 c 4
 561.813476562 67 435.236328125 -10 298.236328125 -10 c 0
 161.236328125 -10 61.8134765625 67 82.9736328125 187 c 4
169.736328125 197 m 0
 154.04296875 108 218.28515625 64 311.28515625 64 c 0
 404.28515625 64 484.04296875 108 499.736328125 197 c 4
 515.4296875 286 451.1875 330 358.1875 330 c 0
 265.1875 330 185.4296875 286 169.736328125 197 c 0
EndSplineSet
EndChar

StartChar: four
Encoding: 52 52 64
Width: 600
VWidth: 0
Flags: HMW
LayerCount: 2
Fore
SplineSet
77.0283203125 210 m 1
 97.0283203125 210 l 1
 85.5673828125 145 l 1
 65.5673828125 145 l 1
 77.0283203125 210 l 1
98.7919921875 220 m 1
 588.791992188 220 l 1
 575.567382812 145 l 1
 85.5673828125 145 l 1
 98.7919921875 220 l 1
593.428710938 700 m 1
 589.197265625 676 l 1
 494.197265625 676 l 1
 498.428710938 700 l 1
 593.428710938 700 l 1
498.428710938 700 m 1
 559.725585938 679 l 1
 162.028320312 210 l 1
 77.0283203125 210 l 1
 498.428710938 700 l 1
504.90234375 680 m 1
 593.428710938 700 l 1
 470 0 l 1
 385 0 l 1
 504.90234375 680 l 1
EndSplineSet
EndChar

StartChar: five
Encoding: 53 53 65
Width: 600
VWidth: 0
Flags: HMW
LayerCount: 2
Fore
SplineSet
124.837890625 311 m 1
 141.008789062 346 l 1
 191.008789062 346 l 1
 184.837890625 311 l 1
 124.837890625 311 l 1
400.228515625 455 m 1
 527.228515625 455 613.477539062 360 588.791992188 220 c 0
 562.342773438 70 425.236328125 -10 298.236328125 -10 c 0
 208.236328125 -10 118.46875 14 67.4560546875 99 c 1
 137.68359375 157 l 5
 168.985351562 102 238.637695312 66 311.637695312 66 c 0
 394.637695312 66 486.3359375 121 503.791992188 220 c 0
 519.485351562 309 480.00390625 380 367.00390625 380 c 1
 400.228515625 455 l 1
124.837890625 311 m 1
 253.428710938 700 l 1
 328.428710938 700 l 1
 215.127929688 341 l 1
 124.837890625 311 l 1
253.428710938 700 m 1
 633.428710938 700 l 1
 620.204101562 625 l 1
 240.204101562 625 l 1
 253.428710938 700 l 1
367.00390625 380 m 1
 290.00390625 380 233.477539062 360 184.837890625 311 c 1
 154.837890625 311 l 1
 200.53125 400 261.228515625 455 400.228515625 455 c 1
 367.00390625 380 l 1
EndSplineSet
EndChar

StartChar: seven
Encoding: 55 55 66
Width: 600
VWidth: 0
Flags: HMW
LayerCount: 2
Fore
SplineSet
663.849609375 640 m 1
 241 0 l 1
 154 0 l 5
 576.849609375 640 l 5
 663.849609375 640 l 1
653.428710938 700 m 1
 674.428710938 700 l 1
 663.849609375 640 l 1
 642.849609375 640 l 1
 653.428710938 700 l 1
173.428710938 700 m 1
 653.428710938 700 l 1
 640.204101562 625 l 1
 160.204101562 625 l 1
 173.428710938 700 l 1
EndSplineSet
EndChar

StartChar: exclam
Encoding: 33 33 67
Width: 230
VWidth: 0
Flags: HMW
LayerCount: 2
Fore
SplineSet
152.400390625 490 m 1
 250.400390625 490 l 1
 181.08203125 250 l 1
 137.08203125 250 l 1
 152.400390625 490 l 1
194.71875 730 m 1
 292.71875 730 l 1
 250.400390625 490 l 1
 152.400390625 490 l 1
 194.71875 730 l 1
EndSplineSet
Refer: 56 46 S 1 0 0.176327 1 0 0 2
EndChar

StartChar: quotesingle
Encoding: 39 39 69
Width: 170
VWidth: 0
Flags: HMW
LayerCount: 2
Fore
SplineSet
150.784179688 685 m 0
 156.07421875 715 185.482421875 740 215.482421875 740 c 0
 245.482421875 740 266.07421875 715 260.784179688 685 c 0
 259.725585938 678.99609375 257.836914062 673.501953125 255.899414062 667.750976562 c 2
 191.63671875 480 l 1
 147.63671875 480 l 1
 149.584960938 667.750976562 l 2
 149.672851562 673.344726562 149.725585938 678.99609375 150.784179688 685 c 0
EndSplineSet
EndChar

StartChar: numbersign
Encoding: 35 35 70
Width: 810
VWidth: 0
Flags: HMW
LayerCount: 2
Fore
SplineSet
752.318359375 240 m 1
 739.09375 165 l 1
 89.09375 165 l 1
 102.318359375 240 l 1
 752.318359375 240 l 1
844.334960938 535 m 1
 831.110351562 460 l 1
 181.110351562 460 l 1
 194.334960938 535 l 1
 844.334960938 535 l 1
688.428710938 700 m 1
 768.428710938 700 l 1
 525 0 l 1
 445 0 l 1
 688.428710938 700 l 1
408.428710938 700 m 1
 488.428710938 700 l 1
 245 0 l 1
 165 0 l 1
 408.428710938 700 l 1
EndSplineSet
EndChar

StartChar: percent
Encoding: 37 37 71
Width: 940
VWidth: 0
Flags: HMW
LayerCount: 2
Fore
SplineSet
196.979492188 550 m 0
 184.813476562 481 228.939453125 425 294.939453125 425 c 0
 360.939453125 425 424.813476562 481 436.979492188 550 c 0
 449.146484375 619 405.020507812 675 339.020507812 675 c 0
 273.020507812 675 209.146484375 619 196.979492188 550 c 0
126.979492188 550 m 0
 145.494140625 655 245.482421875 740 350.482421875 740 c 0
 455.482421875 740 525.494140625 655 506.979492188 550 c 0
 488.465820312 445 388.477539062 360 283.477539062 360 c 0
 178.477539062 360 108.465820312 445 126.979492188 550 c 0
631.739257812 180 m 0
 619.572265625 111 663.698242188 55 729.698242188 55 c 0
 795.698242188 55 859.572265625 111 871.739257812 180 c 0
 883.905273438 249 839.779296875 305 773.779296875 305 c 0
 707.779296875 305 643.905273438 249 631.739257812 180 c 0
561.739257812 180 m 0
 580.252929688 285 680.241210938 370 785.241210938 370 c 0
 890.241210938 370 960.252929688 285 941.739257812 180 c 0
 923.224609375 75 823.236328125 -10 718.236328125 -10 c 0
 613.236328125 -10 543.224609375 75 561.739257812 180 c 0
818.71875 730 m 1
 898.71875 730 l 1
 250 0 l 1
 170 0 l 1
 818.71875 730 l 1
EndSplineSet
EndChar

StartChar: dollar
Encoding: 36 36 72
Width: 600
VWidth: 0
Flags: HMW
LayerCount: 2
Fore
SplineSet
421 780 m 5
 491 780 l 5
 351 -80 l 1
 281 -80 l 1
 421 780 l 5
EndSplineSet
Refer: 21 83 N 1 0 0 1 -10 0 2
EndChar

StartChar: asterisk
Encoding: 42 42 73
Width: 324
VWidth: 0
Flags: HMW
LayerCount: 2
Fore
SplineSet
130.166015625 483 m 5
 112.924804688 527 l 5
 398.373046875 677 l 5
 415.615234375 633 l 5
 130.166015625 483 l 5
131.615234375 633 m 5
 164.373046875 677 l 5
 396.924804688 527 l 5
 364.166015625 483 l 5
 131.615234375 633 l 5
265.71875 730 m 5
 315.71875 730 l 5
 262.8203125 430 l 5
 212.8203125 430 l 5
 265.71875 730 l 5
EndSplineSet
EndChar

StartChar: slash
Encoding: 47 47 74
Width: 430
VWidth: 0
Flags: HMW
LayerCount: 2
Fore
SplineSet
517.53515625 780 m 5
 587.53515625 780 l 5
 35.8935546875 -80 l 5
 -34.1064453125 -80 l 5
 517.53515625 780 l 5
EndSplineSet
EndChar

StartChar: ampersand
Encoding: 38 38 75
Width: 715
VWidth: 0
Flags: HMW
LayerCount: 2
Fore
SplineSet
374.649414062 395 m 0
 455.106445312 415.8046875 519.63671875 480 528.453125 530 c 5
 608.453125 530 l 5
 591.702148438 435 492.271484375 367.01171875 395.833007812 345 c 0
 294.004882812 321.758789062 201.311523438 291 183.501953125 190 c 1
 103.501953125 190 l 1
 128.1875 330 263.966796875 366.379882812 374.649414062 395 c 0
328.453125 530 m 5
 248.453125 530 l 5
 267.672851562 639 351.192382812 710 460.192382812 710 c 0
 569.192382812 710 627.672851562 639 608.453125 530 c 5
 528.453125 530 l 5
 538.856445312 589 503.967773438 635 446.967773438 635 c 0
 389.967773438 635 338.856445312 589 328.453125 530 c 5
352.311523438 291 m 2
 278.116210938 392.038085938 232.583984375 440 248.453125 530 c 5
 328.453125 530 l 5
 317.697265625 469 351.639648438 434.572265625 420.774414062 339 c 2
 665 0 l 1
 565 0 l 1
 352.311523438 291 l 2
634.661132812 310 m 1
 700.077148438 284 l 1
 640.27734375 115 487.236328125 -10 318.236328125 -10 c 4
 169.236328125 -10 82.51953125 71 103.501953125 190 c 5
 183.501953125 190 l 5
 171.3359375 121 234.4609375 65 341.4609375 65 c 0
 458.4609375 65 578.388671875 161 634.661132812 310 c 1
EndSplineSet
EndChar

StartChar: parenleft
Encoding: 40 40 76
Width: 275
VWidth: 0
Flags: HMW
LayerCount: 2
Fore
SplineSet
325.482421875 740 m 5
 381.955078125 720 l 5
 176.110351562 460 107.342773438 70 221.498046875 -190 c 5
 157.971679688 -210 l 5
 12.6328125 100 70.8203125 430 325.482421875 740 c 5
EndSplineSet
EndChar

StartChar: hyphen
Encoding: 45 45 78
Width: 430
VWidth: 0
Flags: HMW
LayerCount: 2
Fore
SplineSet
124.069335938 335 m 5
 424.069335938 335 l 5
 410.844726562 260 l 5
 110.844726562 260 l 5
 124.069335938 335 l 5
EndSplineSet
EndChar

StartChar: plus
Encoding: 43 43 79
Width: 510
VWidth: 0
Flags: HMW
LayerCount: 2
Fore
SplineSet
398.856445312 589 m 5
 318.627929688 134 l 5
 238.627929688 134 l 5
 318.856445312 589 l 5
 398.856445312 589 l 5
100.354492188 399 m 5
 550.354492188 399 l 5
 537.129882812 324 l 5
 87.1298828125 324 l 5
 100.354492188 399 l 5
EndSplineSet
EndChar

StartChar: equal
Encoding: 61 61 80
Width: 510
VWidth: 0
Flags: HMW
LayerCount: 2
Fore
SplineSet
78.490234375 275 m 5
 528.490234375 275 l 5
 515.265625 200 l 5
 65.265625 200 l 5
 78.490234375 275 l 5
119.926757812 510 m 5
 569.926757812 510 l 5
 556.702148438 435 l 5
 106.702148438 435 l 5
 119.926757812 510 l 5
EndSplineSet
EndChar

StartChar: backslash
Encoding: 92 92 81
Width: 430
VWidth: 0
Flags: HMW
LayerCount: 2
Fore
SplineSet
187.53515625 780 m 5
 435.893554688 -80 l 5
 365.893554688 -80 l 5
 117.53515625 780 l 5
 187.53515625 780 l 5
EndSplineSet
EndChar

StartChar: less
Encoding: 60 60 82
Width: 510
VWidth: 0
Flags: HMW
LayerCount: 2
Fore
SplineSet
99.6494140625 395 m 5
 514.383789062 195 l 5
 501.159179688 120 l 5
 86.4248046875 320 l 5
 99.6494140625 395 l 5
99.6494140625 395 m 5
 584.915039062 595 l 5
 571.690429688 520 l 5
 86.4248046875 320 l 5
 99.6494140625 395 l 5
EndSplineSet
EndChar

StartChar: question
Encoding: 63 63 84
Width: 555
VWidth: 0
Flags: HMW
LayerCount: 2
Fore
SplineSet
411.231445312 438 m 0
 471.904296875 466.341796875 504.221679688 506 513.038085938 556 c 1
 598.038085938 556 l 1
 581.287109375 461 530.737304688 411.75 445.946289062 374 c 0
 382.177734375 345.609375 353.364257812 331 339.08203125 250 c 1
 259.08203125 250 l 1
 265.53125 400 335.80859375 402.768554688 411.231445312 438 c 0
513.038085938 556 m 1
 523.44140625 615 489.2578125 665 402.2578125 665 c 0
 313.2578125 665 252.088867188 613 205.979492188 550 c 1
 144.561523438 593 l 1
 201.725585938 679 292.482421875 740 415.482421875 740 c 0
 549.482421875 740 615.494140625 655 598.038085938 556 c 1
 513.038085938 556 l 1
EndSplineSet
Refer: 56 46 S 1 0 0.176327 1 145 0 2
EndChar

StartChar: at
Encoding: 64 64 85
Width: 1050
VWidth: 0
Flags: HMW
LayerCount: 2
Fore
SplineSet
570.844726562 260 m 1048
745.844726562 260 m 0,0,1
 766.828125 379 702.228515625 455 605.228515625 455 c 0,2,3
 508.228515625 455 416.828125 379 395.844726562 260 c 0,4,5
 374.862304688 141 439.4609375 65 536.4609375 65 c 0,6,7
 633.4609375 65 724.862304688 141 745.844726562 260 c 0,0,1
780.844726562 260 m 0,8,9
 754.572265625 111 662.236328125 -10 513.236328125 -10 c 0,10,11
 384.236328125 -10 287.80859375 101 315.844726562 260 c 0,12,13
 343.880859375 419 479.453125 530 608.453125 530 c 0,14,15
 757.453125 530 807.118164062 409 780.844726562 260 c 0,8,9
871.690429688 520 m 1,16,-1
 801.159179688 120 l 1,17,-1
 717.6328125 100 l 1,18,-1
 791.690429688 520 l 1,19,-1
 871.690429688 520 l 1,16,-1
100.844726562 260 m 0,16,17
 146.513671875 519 374.71875 730 653.71875 730 c 0,18,19
 912.71875 730 1093.56640625 559 1047.8984375 300 c 0,20,21
 1006.22167969 63.638671875 871.954101562 -10.2880859375 796.052734375 -10.2880859375 c 0,0,0
 721.979492188 -10.2880859375 707.6171875 43.19921875 717.6328125 100 c 1,1,-1
 801.159179688 120 l 5,2,3
 790.673828125 60.53515625 796.6875 32.859375 833.172851562 32.859375 c 4,0,0
 884.440429688 32.859375 984.413085938 115.765625 1016.8984375 300 c 0,1,2
 1059.74511719 543 891.60546875 701 648.60546875 701 c 0,3,4
 385.60546875 701 174.692382812 503 131.844726562 260 c 0,5,6
 88.998046875 17 250.084960938 -181 493.084960938 -181 c 1,7,-1
 487.971679688 -210 l 1,8,9
 228.971679688 -210 55.1767578125 1 100.844726562 260 c 0,16,17
EndSplineSet
EndChar

StartChar: bracketleft
Encoding: 91 91 86
Width: 295
VWidth: 0
Flags: HMW
LayerCount: 2
Fore
SplineSet
240.317382812 654 m 1
 253.71875 730 l 1
 403.71875 730 l 1
 390.317382812 654 l 1
 240.317382812 654 l 1
89.734375 -200 m 1
 103.135742188 -124 l 1
 253.135742188 -124 l 1
 239.734375 -200 l 1
 89.734375 -200 l 1
173.71875 730 m 1
 253.71875 730 l 1
 89.734375 -200 l 1
 9.734375 -200 l 1
 173.71875 730 l 1
EndSplineSet
EndChar

StartChar: asciicircum
Encoding: 94 94 88
Width: 510
VWidth: 0
Flags: HMW
LayerCount: 2
Fore
SplineSet
495.8203125 430 m 5
 348.71875 730 l 5
 418.71875 730 l 5
 565.8203125 430 l 5
 495.8203125 430 l 5
348.71875 730 m 5
 418.71875 730 l 5
 165.8203125 430 l 5
 95.8203125 430 l 5
 348.71875 730 l 5
EndSplineSet
EndChar

StartChar: underscore
Encoding: 95 95 89
Width: 600
VWidth: 0
Flags: HMW
LayerCount: 2
Fore
SplineSet
-16.1064453125 -80 m 5
 587.893554688 -80 l 5
 573.788085938 -160 l 5
 -30.2119140625 -160 l 5
 -16.1064453125 -80 l 5
EndSplineSet
EndChar

StartChar: braceleft
Encoding: 123 123 90
Width: 349
VWidth: 0
Flags: HMW
LayerCount: 2
Fore
SplineSet
98.779296875 305 m 5
 116.779296875 305 l 5
 102.673828125 225 l 5
 84.673828125 225 l 5
 98.779296875 305 l 5
173.44921875 150 m 5
 253.44921875 150 l 5
 218.18359375 -50 l 5
 138.18359375 -50 l 5
 173.44921875 150 l 5
249.26953125 580 m 5
 329.26953125 580 l 5
 294.00390625 380 l 5
 214.00390625 380 l 5
 249.26953125 580 l 5
214.00390625 380 m 5
 294.00390625 380 l 5
 280.07421875 301 214.08203125 250 95.08203125 250 c 5
 98.779296875 305 l 5
 186.779296875 305 206.951171875 340 214.00390625 380 c 5
173.44921875 150 m 5
 180.501953125 190 162.673828125 225 84.673828125 225 c 5
 100.37109375 280 l 5
 219.37109375 280 267.37890625 229 253.44921875 150 c 5
 173.44921875 150 l 5
329.26953125 580 m 5
 249.26953125 580 l 5
 263.19921875 659 332.71875 730 451.71875 730 c 5
 444.494140625 655 l 5
 366.494140625 655 336.322265625 620 329.26953125 580 c 5
218.18359375 -50 m 5
 211.130859375 -90 228.958984375 -125 306.958984375 -125 c 5
 287.734375 -200 l 5
 168.734375 -200 124.25390625 -129 138.18359375 -50 c 5
 218.18359375 -50 l 5
EndSplineSet
EndChar

StartChar: bar
Encoding: 124 124 92
Width: 300
VWidth: 0
Flags: HMW
LayerCount: 2
Fore
SplineSet
322.53515625 780 m 5
 170.893554688 -80 l 5
 100.893554688 -80 l 5
 252.53515625 780 l 5
 322.53515625 780 l 5
EndSplineSet
EndChar

StartChar: asciitilde
Encoding: 126 126 93
Width: 470
VWidth: 0
Flags: HMW
LayerCount: 2
Fore
SplineSet
145.680664062 174 m 5
 79.20703125 194 l 5
 97.572265625 272.260742188 151.633789062 310.638671875 203.004882812 310.638671875 c 4
 266.619140625 310.638671875 310.911132812 246.962890625 355.153320312 246.962890625 c 4
 399.654296875 246.962890625 413.770507812 276.58984375 420.366210938 314 c 5
 476.83984375 294 l 5
 456.711914062 205.739257812 405.262695312 177.361328125 355.094726562 177.361328125 c 4
 293.536132812 177.361328125 252.33203125 241.037109375 209.748046875 241.037109375 c 4
 165.947265625 241.037109375 152.27734375 211.41015625 145.680664062 174 c 5
EndSplineSet
EndChar

StartChar: tilde
Encoding: 732 732 98
Width: 500
VWidth: 0
Flags: HMW
AnchorPoint: "dot" 357.56 610 basechar 0
LayerCount: 2
Fore
SplineSet
235.795898438 600 m 1
 169.322265625 620 l 1
 187.6875 698.260742188 241.749023438 736.638671875 293.120117188 736.638671875 c 0
 356.734375 736.638671875 401.026367188 672.962890625 445.268554688 672.962890625 c 0
 489.76953125 672.962890625 503.885742188 702.58984375 510.482421875 740 c 1
 566.955078125 720 l 1
 546.827148438 631.739257812 495.377929688 603.361328125 445.209960938 603.361328125 c 0
 383.651367188 603.361328125 342.447265625 667.037109375 299.86328125 667.037109375 c 0
 256.0625 667.037109375 242.392578125 637.41015625 235.795898438 600 c 1
EndSplineSet
EndChar

StartChar: dotaccent
Encoding: 729 729 99
Width: 500
VWidth: 0
Flags: HMW
AnchorPoint: "dot" 354.033 590 basechar 0
LayerCount: 2
Fore
SplineSet
298.73046875 645 m 0
 305.079101562 681 339.192382812 710 375.192382812 710 c 0
 411.192382812 710 435.079101562 681 428.73046875 645 c 0
 422.3828125 609 388.26953125 580 352.26953125 580 c 0
 316.26953125 580 292.3828125 609 298.73046875 645 c 0
EndSplineSet
EndChar

StartChar: ring
Encoding: 730 730 100
Width: 500
VWidth: 0
Flags: HMW
AnchorPoint: "ring" 354.033 590 basechar 0
LayerCount: 2
Fore
SplineSet
319.90234375 680 m 0
 314.7890625 651 332.0859375 630 361.0859375 630 c 0
 390.0859375 630 414.7890625 651 419.90234375 680 c 0
 425.015625 709 407.71875 730 378.71875 730 c 4
 349.71875 730 325.015625 709 319.90234375 680 c 0
269.90234375 680 m 0
 279.600585938 735 332.53515625 780 387.53515625 780 c 0
 442.53515625 780 479.600585938 735 469.90234375 680 c 0
 460.204101562 625 407.26953125 580 352.26953125 580 c 0
 297.26953125 580 260.204101562 625 269.90234375 680 c 0
EndSplineSet
EndChar

StartChar: breve
Encoding: 728 728 101
Width: 500
VWidth: 0
Flags: HMW
AnchorPoint: "dot" 346.094 579 basechar 0
LayerCount: 2
Fore
SplineSet
360.19921875 659 m 1
 300.19921875 659 269.431640625 683 277.895507812 731 c 1
 201.836914062 725 l 1
 186.143554688 636 247.09375 579 346.09375 579 c 1
 360.19921875 659 l 1
360.19921875 659 m 1
 346.09375 579 l 1
 445.09375 579 526.143554688 636 541.836914062 725 c 1
 467.895507812 731 l 1
 459.431640625 683 420.19921875 659 360.19921875 659 c 1
EndSplineSet
EndChar

StartChar: circumflex
Encoding: 710 710 102
Width: 500
VWidth: 0
Flags: HMW
AnchorPoint: "dot" 361.086 630 basechar 0
LayerCount: 2
Fore
SplineSet
426.0859375 630 m 1
 343.71875 730 l 1
 413.71875 730 l 1
 496.0859375 630 l 1
 426.0859375 630 l 1
343.71875 730 m 1
 413.71875 730 l 1
 296.0859375 630 l 1
 226.0859375 630 l 1
 343.71875 730 l 1
EndSplineSet
EndChar

StartChar: caron
Encoding: 711 711 103
Width: 500
VWidth: 0
Flags: HMW
AnchorPoint: "dot" 361.086 630 basechar 0
LayerCount: 2
Fore
SplineSet
313.71875 730 m 1
 396.0859375 630 l 1
 326.0859375 630 l 1
 243.71875 730 l 1
 313.71875 730 l 1
396.0859375 630 m 1
 326.0859375 630 l 1
 443.71875 730 l 1
 513.71875 730 l 1
 396.0859375 630 l 1
EndSplineSet
EndChar

StartChar: cent
Encoding: 162 162 105
Width: 600
VWidth: 0
Flags: HMW
LayerCount: 2
Fore
SplineSet
420.795898438 600 m 1
 460.795898438 600 l 1
 340.893554688 -80 l 1
 300.893554688 -80 l 1
 420.795898438 600 l 1
190.844726562 260 m 0
 171.625 151 239.4609375 65 346.4609375 65 c 0
 410.4609375 65 471.575195312 94 517.21484375 143 c 1
 559.221679688 92 l 1
 500.9375 28 420.236328125 -10 333.236328125 -10 c 0
 184.236328125 -10 84.572265625 111 110.844726562 260 c 0
 137.118164062 409 279.453125 530 428.453125 530 c 0
 515.453125 530 581.576171875 491 617.467773438 428 c 1
 558.475585938 377 l 1
 530.115234375 426 479.228515625 455 415.228515625 455 c 0
 308.228515625 455 210.064453125 369 190.844726562 260 c 0
EndSplineSet
EndChar

StartChar: sterling
Encoding: 163 163 108
Width: 600
VWidth: 0
Flags: HMW
LayerCount: 2
Fore
SplineSet
162.934570312 45 m 1
 76.8232421875 -1 l 1
 295.056640625 272.541992188 164.181640625 278.921875 208.453125 530 c 1
 288.453125 530 l 1
 256.029296875 346.112304688 343.745117188 219.735351562 162.934570312 45 c 1
140.591796875 -25 m 1
 76.8232421875 -1 l 1
 165.188476562 77.2607421875 203.017578125 91.638671875 274.388671875 91.638671875 c 0
 338.002929688 91.638671875 369.059570312 37.962890625 413.301757812 37.962890625 c 0
 457.802734375 37.962890625 487.154296875 57.58984375 513.750976562 95 c 1
 567.342773438 70 l 1
 527.21484375 -18.2607421875 458.41015625 -31.638671875 408.2421875 -31.638671875 c 0
 326.68359375 -31.638671875 280.48046875 32.037109375 237.896484375 32.037109375 c 0
 194.095703125 32.037109375 167.188476562 12.41015625 140.591796875 -25 c 1
112.00390625 380 m 5
 410.00390625 380 l 5
 396.779296875 305 l 5
 98.779296875 305 l 5
 112.00390625 380 l 5
416.967773438 635 m 1
 424.192382812 710 l 1
 506.192382812 710 567.962890625 669 594.559570312 610 c 1
 542.15625 551 l 1
 522.033203125 590 480.967773438 635 416.967773438 635 c 1
288.453125 530 m 1
 208.453125 530 l 1
 225.91015625 629 315.192382812 710 424.192382812 710 c 1
 416.967773438 635 l 1
 341.967773438 635 298.856445312 589 288.453125 530 c 1
EndSplineSet
EndChar

StartChar: currency
Encoding: 164 164 109
Width: 600
VWidth: 0
Flags: HMW
LayerCount: 2
Fore
SplineSet
168.088867188 199 m 1
 210.096679688 148 l 1
 97.1689453125 52 l 1
 55.162109375 103 l 1
 168.088867188 199 l 1
437.978515625 153 m 1
 497.970703125 204 l 1
 581.162109375 103 l 1
 521.168945312 52 l 1
 437.978515625 153 l 1
613.916992188 578 m 1
 655.924804688 527 l 1
 522.999023438 414 l 1
 480.9921875 465 l 1
 613.916992188 578 l 1
129.924804688 527 m 1
 189.916992188 578 l 1
 282.9921875 465 l 1
 222.999023438 414 l 1
 129.924804688 527 l 1
203.54296875 315 m 0
 188.202148438 228 242.036132812 159 328.036132812 159 c 0
 414.036132812 159 492.202148438 228 507.54296875 315 c 0
 522.883789062 402 469.049804688 471 383.049804688 471 c 0
 297.049804688 471 218.883789062 402 203.54296875 315 c 0
139.54296875 315 m 0
 160.526367188 434 274.629882812 531 393.629882812 531 c 0
 512.629882812 531 592.526367188 434 571.54296875 315 c 0
 550.560546875 196 436.456054688 99 317.456054688 99 c 0
 198.456054688 99 118.560546875 196 139.54296875 315 c 0
EndSplineSet
EndChar

StartChar: brokenbar
Encoding: 166 166 111
Width: 300
VWidth: 0
Flags: HMW
LayerCount: 2
Fore
SplineSet
266.110351562 460 m 5
 196.110351562 460 l 5
 252.53515625 780 l 1
 322.53515625 780 l 1
 266.110351562 460 l 5
234.37109375 280 m 1
 170.893554688 -80 l 1
 100.893554688 -80 l 1
 164.37109375 280 l 1
 234.37109375 280 l 1
EndSplineSet
EndChar

StartChar: section
Encoding: 167 167 112
Width: 520
VWidth: 0
Flags: HMW
LayerCount: 2
Fore
SplineSet
419.685546875 140 m 1
 499.685546875 140 l 1
 485.755859375 61 412.236328125 -10 273.236328125 -10 c 0
 164.236328125 -10 106.524414062 37 63.337890625 104 c 1
 127.331054688 155 l 1
 164.514648438 105 208.4609375 65 286.4609375 65 c 0
 359.4609375 65 410.869140625 90 419.685546875 140 c 1
330.60546875 287 m 0
 444.255859375 268 520.844726562 260 499.685546875 140 c 1
 419.685546875 140 l 1
 426.739257812 180 393.994140625 200.76171875 288.086914062 216 c 0
 187.169921875 230.520507812 67.8349609375 328 233.40234375 473 c 5
 293.40234375 473 l 5
 170.48046875 343 235.684570312 302.869140625 330.60546875 287 c 0
271.03515625 573 m 1
 191.03515625 573 l 1
 204.436523438 649 291.192382812 710 400.192382812 710 c 0
 509.192382812 710 554.138671875 670 588.733398438 628 c 1
 530.03515625 573 l 1
 497.854492188 606 464.967773438 635 386.967773438 635 c 0
 308.967773438 635 276.677734375 605 271.03515625 573 c 1
387.810546875 498 m 0
 501.4609375 479 625.53125 400 459.08203125 250 c 5
 399.08203125 250 l 5
 522.00390625 380 451.19921875 411.76171875 345.291992188 427 c 0
 244.374023438 441.520507812 174.284179688 478 191.03515625 573 c 1
 271.03515625 573 l 1
 262.21875 523 292.889648438 513.869140625 387.810546875 498 c 0
EndSplineSet
EndChar

StartChar: copyright
Encoding: 169 169 114
Width: 850
VWidth: 0
Flags: HMW
LayerCount: 2
Fore
SplineSet
113 350 m 0
 113 174 254 30 425 30 c 0
 596 30 737 174 737 350 c 0
 737 526 596 670 425 670 c 0
 254 670 113 526 113 350 c 0
70 350 m 0
 70 549 230 710 425 710 c 0
 620 710 780 549 780 350 c 0
 780 151 620 -10 425 -10 c 0
 230 -10 70 151 70 350 c 0
EndSplineSet
Refer: 8 67 N 0.5 0 0 0.5 220.5 175 2
EndChar

StartChar: registered
Encoding: 174 174 116
Width: 850
VWidth: 0
Flags: HMW
LayerCount: 2
Fore
SplineSet
113 350 m 0
 113 174 254 30 425 30 c 0
 596 30 737 174 737 350 c 0
 737 526 596 670 425 670 c 0
 254 670 113 526 113 350 c 0
70 350 m 0
 70 549 230 710 425 710 c 0
 620 710 780 549 780 350 c 0
 780 151 620 -10 425 -10 c 0
 230 -10 70 151 70 350 c 0
EndSplineSet
Refer: 17 82 S 0.5 0 0 0.5 252 175 2
EndChar

StartChar: degree
Encoding: 176 176 119
Width: 400
VWidth: 0
Flags: HMW
LayerCount: 2
Fore
SplineSet
249.90234375 680 m 0
 243.025390625 641 268.559570312 610 307.559570312 610 c 0
 346.559570312 610 383.025390625 641 389.90234375 680 c 0
 396.779296875 719 371.245117188 750 332.245117188 750 c 0
 293.245117188 750 256.779296875 719 249.90234375 680 c 0
219.90234375 680 m 0
 229.600585938 735 282.53515625 780 337.53515625 780 c 0
 392.53515625 780 429.600585938 735 419.90234375 680 c 0
 410.204101562 625 357.26953125 580 302.26953125 580 c 0
 247.26953125 580 210.204101562 625 219.90234375 680 c 0
EndSplineSet
EndChar

StartChar: mu
Encoding: 181 181 120
Width: 635
VWidth: 0
Flags: HMW
LayerCount: 2
Fore
SplineSet
120 220 m 1
 200 220 l 1
 120 -198 l 5
 40 -198 l 5
 120 220 l 1
EndSplineSet
Refer: 40 117 N 1 0 0 1 0 0 2
EndChar

StartChar: grave
Encoding: 96 96 123
Width: 320
VWidth: 0
Flags: HMW
AnchorPoint: "dot" 304.033 590 basechar 0
LayerCount: 2
Fore
SplineSet
294.033203125 590 m 1
 198.71875 730 l 1
 298.71875 730 l 1
 354.033203125 590 l 1
 294.033203125 590 l 1
EndSplineSet
EndChar

StartChar: acute
Encoding: 180 180 124
Width: 320
VWidth: 0
Flags: HMW
AnchorPoint: "dot" 224.033 590 basechar 0
LayerCount: 2
Fore
SplineSet
234.033203125 590 m 1
 174.033203125 590 l 1
 278.71875 730 l 1
 378.71875 730 l 1
 234.033203125 590 l 1
EndSplineSet
EndChar

StartChar: logicalnot
Encoding: 172 172 126
Width: 540
VWidth: 0
Flags: HMW
LayerCount: 2
Fore
SplineSet
481.702148438 435 m 5
 551.702148438 435 l 5
 523.490234375 275 l 5
 453.490234375 275 l 5
 481.702148438 435 l 5
EndSplineSet
Refer: 78 45 S 1.13333 0 0.176327 1 8.96603 100 2
EndChar

StartChar: macron
Encoding: 175 175 127
Width: 300
VWidth: 0
Flags: HMW
LayerCount: 2
Fore
SplineSet
139.061523438 800 m 1
 443.061523438 800 l 5
 428.955078125 720 l 5
 124.955078125 720 l 1
 139.061523438 800 l 1
EndSplineSet
EndChar

StartChar: paragraph
Encoding: 182 182 130
Width: 600
VWidth: 0
Flags: HMW
LayerCount: 2
Fore
SplineSet
568.428710938 700 m 1
 560.670898438 656 l 1
 468.670898438 656 l 1
 476.428710938 700 l 1
 568.428710938 700 l 1
648.428710938 700 m 1
 525 0 l 1
 445 0 l 1
 568.428710938 700 l 1
 648.428710938 700 l 1
498.428710938 700 m 1
 375 0 l 1
 295 0 l 1
 418.428710938 700 l 1
 498.428710938 700 l 1
340.844726562 260 m 1
 241.844726562 260 136.890625 351 159.63671875 480 c 0
 182.3828125 609 319.428710938 700 418.428710938 700 c 1
 386.690429688 520 372.583984375 440 340.844726562 260 c 1
EndSplineSet
EndChar

StartChar: cedilla
Encoding: 184 184 131
Width: 320
VWidth: 0
Flags: HMW
AnchorPoint: "ced" 145.823 -1 basechar 0
LayerCount: 2
Fore
SplineSet
89.2900390625 30 m 5
 129.290039062 30 l 5
 173.294921875 -4 231.241210938 -44 221.014648438 -102 c 4
 212.727539062 -149 184.555664062 -184 117.555664062 -184 c 4
 80.5556640625 -184 45.0244140625 -170 26.6689453125 -155 c 5
 51.958984375 -125 l 5
 60.4296875 -128 78.314453125 -140 108.314453125 -140 c 4
 139.314453125 -140 164.901367188 -131 170.543945312 -99 c 4
 176.71484375 -64 129.413085938 -9 89.2900390625 30 c 5
EndSplineSet
EndChar

StartChar: dotlessi
Encoding: 305 305 225
Width: 250
VWidth: 0
Flags: HMW
AnchorPoint: "ced" 125 0 basechar 0
LayerCount: 2
Fore
SplineSet
176.690429688 520 m 1
 256.690429688 520 l 1
 165 0 l 1
 85 0 l 1
 176.690429688 520 l 1
EndSplineSet
EndChar

StartChar: uni0237
Encoding: 567 567 349
Width: 250
VWidth: 0
Flags: HW
HStem: -210 75<-47.9045 68.9875> 500 20G<89 169>
VStem: 89 80<-116.766 520>
LayerCount: 2
Fore
SplineSet
180.690429688 520 m 1
 260.690429688 520 l 1
 158.419921875 -60 l 1
 78.419921875 -60 l 1
 180.690429688 520 l 1
4.1962890625 -135 m 1
 -3.0283203125 -210 l 1
 -60.0283203125 -210 -107.20703125 -194 -128.211914062 -160 c 1
 -79.80859375 -101 l 1
 -66.1591796875 -120 -38.8037109375 -135 4.1962890625 -135 c 1
78.419921875 -60 m 1
 158.419921875 -60 l 1
 144.490234375 -139 85.9716796875 -210 -3.0283203125 -210 c 1
 4.1962890625 -135 l 1
 41.1962890625 -135 71.3671875 -100 78.419921875 -60 c 1
EndSplineSet
EndChar

StartChar: kgreenlandic
Encoding: 312 312 573
Width: 570
VWidth: 0
Flags: HW
AnchorPoint: "dot" 325 673 basechar 0
AnchorPoint: "ced" 495 0 basechar 0
LayerCount: 2
Fore
SplineSet
245 291 m 1
 325 305 l 1
 545 0 l 1
 455 0 l 1
 245 291 l 1
430 520 m 1
 525 520 l 1
 165 110 l 1
 110 154 l 1
 430 520 l 1
85 520 m 5
 165 520 l 5
 165 0 l 1
 85 0 l 1
 85 520 l 5
EndSplineSet
EndChar

StartChar: ogonek
Encoding: 731 731 574
Width: 320
VWidth: 0
Flags: HW
AnchorPoint: "ced" 149 0 basechar 0
LayerCount: 2
Fore
SplineSet
214.290039062 30 m 1
 160.413085938 -9 93.71484375 -64 87.5439453125 -99 c 0
 81.9013671875 -131 104.314453125 -140 135.314453125 -140 c 0
 165.314453125 -140 187.4296875 -128 196.958984375 -125 c 1
 211.668945312 -155 l 1
 188.024414062 -170 147.555664062 -184 110.555664062 -184 c 0
 43.5556640625 -184 27.7275390625 -149 36.0146484375 -102 c 0
 46.2412109375 -44 118.294921875 -4 174.290039062 30 c 1
 214.290039062 30 l 1
EndSplineSet
EndChar

StartChar: AE
Encoding: 198 198 582
Width: 1090
VWidth: 0
Flags: HW
LayerCount: 2
Fore
SplineSet
540 700 m 1
 665 700 l 1
 660 620 l 1
 540 620 l 1
 540 700 l 1
234 260 m 5
 596 260 l 1
 596 185 l 1
 234 185 l 5
 234 260 l 5
540 700 m 1
 615 690 l 1
 125 0 l 1
 40 0 l 1
 540 700 l 1
EndSplineSet
Refer: 0 69 N 1 0 0 1 430 0 2
EndChar

StartChar: fi
Encoding: 64257 64257 585
Width: 375
VWidth: 0
Flags: HW
AnchorPoint: "ced" 158 0 basechar 0
LayerCount: 2
Fore
SplineSet
136.690429688 520 m 1
 439.690429688 520 l 1
 426.465820312 445 l 1
 123.465820312 445 l 1
 136.690429688 520 l 1
304.033203125 590 m 1
 200 0 l 1
 115 0 l 1
 219.033203125 590 l 1
 304.033203125 590 l 1
304.033203125 590 m 1
 219.033203125 590 l 1
 232.962890625 669 305.482421875 740 394.482421875 740 c 1
 387.2578125 665 l 1
 332.2578125 665 310.91015625 629 304.033203125 590 c 1
387.2578125 665 m 1
 394.482421875 740 l 1
 433.189453125 740 463.827148438 731.815429688 484.947265625 708.608398438 c 1
 471.262695312 631 l 1
 456.73046875 645 431.2578125 665 387.2578125 665 c 1
EndSplineSet
EndChar
